# xmcd
#
# Track frame offsets:
# 182
# 11155
# 23075
# 36690
# 52795
# 66152
# 78650
# 87500
# 97415
# 112220
# 124065
# 135960
# 149165
# 161022
# 175267
#
# Disc length: 2539 seconds
#
#
# Revision: 0
# Processed by: cddbd v1.5.2PL0 Copyright (c) Steve Scherf et al.
# Submitted via: FreeRIP 2.951 
#
DISCID=de09e90f
DTITLE=Zilo and Zalo - Som Da Terra
DYEAR=1900
DGENRE=
TTITLE0=Alma  Inocente
TTITLE1=Tango Da Meia-Noite
TTITLE2=Covardia
TTITLE3=O Milagre Do Ladrão
TTITLE4=A Alma Do Ferreirinha
TTITLE5=Três Companheiros
TTITLE6=Preço Da Traição
TTITLE7=Mulher Inocente
TTITLE8=Alma Aventureira
TTITLE9=Meu Regresso
TTITLE10=Amarga Lembrança
TTITLE11=A Volta Do Seresteiro
TTITLE12=Lição De Caboclo
TTITLE13=Poço Verde
TTITLE14=Casinha De Praia
EXTD=
EXTT0=
EXTT1=
EXTT2=
EXTT3=
EXTT4=
EXTT5=
EXTT6=
EXTT7=
EXTT8=
EXTT9=
EXTT10=
EXTT11=
EXTT12=
EXTT13=
EXTT14=
PLAYORDER=
